<svg width="19" height="22" viewBox="0 0 19 22" fill="none" xmlns="http://www.w3.org/2000/svg">
<path fill-rule="evenodd" clip-rule="evenodd" d="M18.9474 5.95129H0V17.7408C0 19.9499 1.79086 21.7408 4 21.7408H14.9474C17.1565 21.7408 18.9474 19.9499 18.9474 17.7408V5.95129ZM4 20.2408C2.61929 20.2408 1.5 19.1215 1.5 17.7408V7.45129H17.4474V17.7408C17.4474 19.1215 16.3281 20.2408 14.9474 20.2408H4Z" fill="#262626"/>
<path d="M6.01318 11.1525V4.96053C6.01318 3.04933 7.56251 1.5 9.47371 1.5C11.3849 1.5 12.9342 3.04933 12.9342 4.96053V11.1525C12.9342 11.5667 13.27 11.9025 13.6842 11.9025C14.0984 11.9025 14.4342 11.5667 14.4342 11.1525V4.96053C14.4342 2.22091 12.2133 0 9.47371 0C6.73409 0 4.51318 2.22091 4.51318 4.96053V11.1525C4.51318 11.5667 4.84897 11.9025 5.26318 11.9025C5.6774 11.9025 6.01318 11.5667 6.01318 11.1525Z" fill="#262626"/>
</svg>
